<?xml version="1.0" standalone="no"?><!DOCTYPE svg PUBLIC "-//W3C//DTD SVG 1.1//EN" "http://www.w3.org/Graphics/SVG/1.1/DTD/svg11.dtd"><svg t="1571638075122" class="icon" viewBox="0 0 1024 1024" version="1.1" xmlns="http://www.w3.org/2000/svg" p-id="1155" xmlns:xlink="http://www.w3.org/1999/xlink" width="200" height="200"><defs><style type="text/css"></style></defs><path d="M791.3 1024H232.7C104.7 1024 0 919.3 0 791.3V232.8C0 104.7 104.7 0 232.7 0h558.5c128 0 232.7 104.7 232.7 232.7v558.5c0.1 128.1-104.6 232.8-232.6 232.8z" fill="#FEF6EB" p-id="1156"></path><path d="M712 573.6c-8.6 0-16.4 5.4-18.9 13.5C669.3 662.5 595 717.3 512 717.3s-157.3-54.8-181.1-130.2c-2.6-8.2-10.4-13.5-18.9-13.5-13.4 0-23.4 13-19.3 25.8 27.1 85.8 106.5 149.7 198.8 158v42H471c-11.3 0-20.5 9.2-20.5 20.5 0 5.4 2.2 10.7 6 14.5 3.8 3.9 9.1 6 14.5 6h82.1c7.4 0.2 14.4-3.7 18.2-10.1a20.4 20.4 0 0 0 0-20.8c-3.8-6.4-10.7-10.3-18.2-10.1h-20.5v-42c92.3-8.3 171.7-72.3 198.8-158 4-12.8-6-25.8-19.4-25.8z" fill="#FF9401" p-id="1157"></path><path d="M512 676.2c79.4 0 143.7-64.3 143.7-143.7V327.3c0-79.3-64.3-143.7-143.7-143.7s-143.7 64.3-143.7 143.7v205.3c0 79.3 64.3 143.6 143.7 143.6z" fill="#FF9401" p-id="1158"></path></svg>